<svg width="136" height="103" viewBox="0 0 136 103" fill="none" xmlns="http://www.w3.org/2000/svg">
<path fill-rule="evenodd" clip-rule="evenodd" d="M26.6341 0.128051C28.215 0.037505 29.8411 -0.0530406 31.422 0.0375056C45.6954 0.0827787 59.9689 0.0375053 74.2423 0.0827784C80.6563 0.0827784 87.2962 1.48625 92.6261 5.24392C97.0978 8.41303 100.26 13.1667 101.886 18.3279C102.925 21.497 103.467 24.8019 103.557 28.1521C103.557 42.2773 103.557 56.4478 103.557 70.6183C113.856 80.5784 124.199 90.5385 134.498 100.499C134.859 100.815 135.311 101.268 135.175 101.811C134.904 102.309 134.317 102.355 133.82 102.4C99.7026 102.4 65.5698 102.4 31.422 102.4C25.4597 102.4 19.3167 101.54 13.9416 98.7329C10.8249 97.103 8.02443 94.8394 5.85631 92.0325C2.28795 87.3693 0.481189 81.5291 0.0746676 75.6889C-0.0608397 74.2854 0.0294977 72.8367 0.0294977 71.3879C0.0294977 55.5423 0.0294977 39.6968 0.0294977 23.8512C0.165005 18.9617 1.56525 14.0269 4.54641 10.1334C7.57274 6.19465 11.9993 3.61408 16.6517 2.0748C19.8587 0.988243 23.2464 0.39969 26.6341 0.128051ZM20.6266 13.3025C18.3681 14.0269 16.2904 15.4756 14.9805 17.4677C13.6706 19.5502 13.0382 22.0402 13.1285 24.485C13.1285 31.3967 13.1285 38.2933 13.1285 45.1748C19.121 45.1748 25.1284 45.1748 31.151 45.1748C31.151 41.8849 31.151 38.5951 31.151 35.3053C31.151 33.6754 31.8737 32.0003 33.1836 31.0496C34.5387 30.0536 36.2551 29.8272 37.9264 29.8725C40.6365 29.8725 43.3617 29.8725 46.102 29.8725C46.1471 24.0775 46.102 18.3278 46.1471 12.5782C39.9138 12.5329 33.6805 12.5782 27.4923 12.5782C25.1887 12.3518 22.8399 12.5782 20.6266 13.3025ZM58.2524 12.5329C58.2524 18.3278 58.2524 24.0775 58.2524 29.8725C61.1433 29.8725 64.0491 29.8725 66.9701 29.8725C68.5058 29.8725 70.1319 30.1894 71.3966 31.1854C72.6162 32.1814 73.2486 33.766 73.2486 35.3053C73.2034 38.6102 73.2034 41.8699 73.2034 45.1748C79.226 45.1748 85.2485 45.1748 91.271 45.1748C91.271 38.1725 91.271 31.1703 91.271 24.1681C91.3162 22.493 91.0452 20.8179 90.458 19.2333C89.6449 17.0149 87.9737 15.1587 85.8508 14.0722C83.1406 12.6687 79.9336 12.3065 76.9073 12.5782C70.6739 12.5329 64.4858 12.5782 58.2524 12.5329ZM13.1285 57.2175C13.1285 64.4913 13.1285 71.7652 13.1285 79.0391C13.1737 80.7594 13.4899 82.5251 14.3481 84.0644C15.3418 85.9206 17.0131 87.3693 18.9553 88.2748C21.6655 89.5424 24.7822 89.9499 27.8085 89.8141C33.9214 89.8141 40.0192 89.8141 46.102 89.8141C46.1321 84.0493 46.1321 78.2845 46.102 72.5198C43.2111 72.5198 40.3203 72.5198 37.4295 72.5198C35.8486 72.5198 34.2225 72.1576 33.0029 71.1616C31.7834 70.2108 31.151 68.6263 31.151 67.087C31.151 63.7971 31.151 60.5073 31.151 57.2175C25.1284 57.1873 19.121 57.1873 13.1285 57.2175ZM73.2034 57.8965C73.1582 61.0204 73.2034 64.1442 73.2034 67.2228C73.2486 68.581 72.8872 69.9392 71.9838 70.9352C70.9449 72.0217 69.4092 72.5197 67.9638 72.4745C64.6213 72.4745 61.2788 72.5197 57.8911 72.4745C57.8459 73.1988 57.8911 73.9685 57.8911 74.7381C57.8459 79.6729 57.8911 84.6077 57.8459 89.5877C59.2913 89.633 60.6916 89.5877 62.137 89.5877C76.3653 89.5877 90.6387 89.633 104.867 89.5877C98.7691 83.4306 92.5809 77.2734 86.4831 71.1163C82.0114 66.7248 77.6751 62.2427 73.2034 57.8965Z" fill="white"/>
<path d="M73.0159 57.6C77.5047 61.9858 81.8574 66.5086 86.3462 70.9401C92.4672 77.1533 98.679 83.3665 104.8 89.5797C90.5176 89.6254 76.1898 89.5797 61.9074 89.5797C60.4565 89.5797 59.0509 89.6254 57.6 89.5797C57.6453 84.5543 57.6 79.5746 57.6453 74.5949C57.6453 73.8183 57.6 73.0416 57.6453 72.3107C61.0459 72.3563 64.4011 72.3107 67.7564 72.3107C69.2073 72.3563 70.7489 71.8538 71.7917 70.7574C72.6986 69.7523 73.0613 68.3817 73.0159 67.0112C73.0159 63.9046 72.9706 60.7523 73.0159 57.6Z" fill="#747474"/>
<path d="M20.6266 13.3025C18.3681 14.0269 16.2904 15.4756 14.9805 17.4677C13.6706 19.5502 13.0382 22.0402 13.1285 24.485V45.1748H31.151V35.3053C31.151 33.6754 31.8737 32.0003 33.1836 31.0496C34.5387 30.0536 36.2551 29.8272 37.9264 29.8725H46.102C46.1471 24.0775 46.102 18.3278 46.1471 12.5782C39.9138 12.5329 33.6805 12.5782 27.4923 12.5782C25.1887 12.3518 22.8399 12.5782 20.6266 13.3025Z" fill="#444444"/>
<path d="M58.2524 12.5329V29.8725H66.9701C68.5058 29.8725 70.1319 30.1894 71.3966 31.1854C72.6162 32.1814 73.2486 33.766 73.2486 35.3053C73.2034 38.6102 73.2034 41.8699 73.2034 45.1748H91.271V24.1681C91.3162 22.493 91.0452 20.8179 90.458 19.2333C89.6449 17.0149 87.9737 15.1587 85.8508 14.0722C83.1406 12.6687 79.9336 12.3065 76.9073 12.5782C70.6739 12.5329 64.4858 12.5782 58.2524 12.5329Z" fill="#444444"/>
<path d="M13.1285 57.2175V79.0391C13.1737 80.7594 13.4899 82.5251 14.3481 84.0644C15.3418 85.9206 17.0131 87.3693 18.9553 88.2748C21.6655 89.5424 24.7822 89.9499 27.8085 89.8141H46.102C46.1321 84.0493 46.1321 78.2845 46.102 72.5198H37.4295C35.8486 72.5198 34.2225 72.1576 33.0029 71.1616C31.7834 70.2108 31.151 68.6263 31.151 67.087V57.2175C25.1284 57.1873 19.121 57.1873 13.1285 57.2175Z" fill="#444444"/>
</svg>
