<svg width="137" height="80" viewBox="0 0 137 80" fill="none" xmlns="http://www.w3.org/2000/svg">
<path d="M134.569 8.01614H98.8929C96.5819 8.01614 94.4876 9.49664 93.7293 11.6993C92.0321 16.5741 90.1183 22.0628 88.1323 27.7319C88.0841 27.9245 88.0239 28.1051 87.9517 28.2736C87.9036 28.394 87.8675 28.5143 87.8434 28.6347C81.6686 46.3284 74.9884 65.4664 72.4608 72.7244C72.1719 73.6271 71.8108 74.6743 71.4136 75.7215C71.3414 75.9021 70.9803 76.8048 70.3303 77.7075C70.234 77.852 70.1256 77.9844 70.0053 78.1047C69.8247 78.3214 69.6081 78.6103 69.247 78.863C69.2229 78.8871 69.1988 78.8992 69.1748 78.8992C69.0544 78.9954 68.922 79.0917 68.7776 79.188C68.3804 79.4408 68.0554 79.5491 67.9471 79.5852C67.923 79.5852 67.911 79.5973 67.911 79.6213C67.8869 79.6213 67.8748 79.6213 67.8748 79.6213C67.8748 79.6213 67.8628 79.6213 67.8387 79.6213C67.3693 79.7658 66.936 79.838 66.611 79.8741H109.473C109.738 79.8741 110.015 79.838 110.304 79.7658C111.315 79.513 113.553 78.538 114.492 75.0715L136.772 11.1216C137.277 9.60497 136.158 8.01614 134.569 8.01614Z" fill="#B5B5B5"/>
<path d="M29.021 67.7415C29.045 67.6933 29.0571 67.6572 29.0571 67.6331L29.1293 67.4165C29.1775 67.2961 29.2256 67.1637 29.2737 67.0193C29.346 66.8508 29.4061 66.6822 29.4543 66.5137C29.5265 66.2971 29.5987 66.0804 29.671 65.8638C29.7673 65.623 29.8635 65.3703 29.9598 65.1055C30.0561 64.8166 30.1524 64.5277 30.2487 64.2388C30.3691 63.9018 30.4894 63.5648 30.6098 63.2278L31.007 62.1445C31.1274 61.7593 31.2598 61.3741 31.4042 60.989C31.5486 60.5557 31.6931 60.1344 31.8375 59.7252C32.006 59.2678 32.1625 58.8224 32.3069 58.3891C32.4755 57.9076 32.644 57.4382 32.8125 56.9808C32.981 56.4753 33.1495 55.9818 33.318 55.5003C33.5106 54.9948 33.6911 54.4893 33.8596 53.9837C34.0522 53.4541 34.2328 52.9366 34.4013 52.431C34.5939 51.9014 34.7865 51.3598 34.9791 50.8061C35.1717 50.2765 35.3642 49.7348 35.5568 49.1812C35.7494 48.6275 35.942 48.0858 36.1346 47.5562C36.3271 46.9785 36.5197 46.4128 36.7123 45.8591C36.9049 45.3054 37.0975 44.7517 37.2901 44.1981L38.4456 40.876C38.6381 40.3223 38.8307 39.7686 39.0233 39.2149C39.2159 38.6853 39.4085 38.1437 39.6011 37.59C39.7937 37.0845 39.9862 36.5669 40.1788 36.0373C40.3473 35.5077 40.5279 34.9901 40.7205 34.4846C40.889 33.9791 41.0575 33.4735 41.226 32.968C41.3945 32.4865 41.563 32.0051 41.7315 31.5236C41.9 31.0662 42.0686 30.6088 42.2371 30.1515C42.3815 29.7181 42.5259 29.2848 42.6704 28.8515L43.1037 27.6238C43.2481 27.2386 43.3806 26.8535 43.5009 26.4683L43.8981 25.4211C43.9944 25.1082 44.1027 24.7952 44.2231 24.4823C44.3194 24.1934 44.4157 23.9165 44.512 23.6517C44.5842 23.411 44.6684 23.1703 44.7647 22.9296C44.837 22.7129 44.9092 22.5083 44.9814 22.3157C45.0897 21.9907 45.1981 21.6657 45.3425 21.3768V21.3407H45.3786C45.3786 21.2685 45.4147 21.2324 45.4508 21.1602C45.7397 20.5102 46.498 19.8241 46.823 19.7158L42.0204 3.50262C41.4066 1.40827 39.4205 0 37.3623 0H3.311C1.68607 0 0.530574 1.55271 1 3.06931L20.1741 67.5248C20.9685 69.7997 22.6657 70.9913 24.4351 71.0635C26.2767 71.1719 28.1182 70.0525 29.021 67.7415Z" fill="#888888"/>
<path d="M60.1474 70.8107C60.0511 70.5459 59.9668 70.2811 59.8946 70.0163C59.8465 69.8719 59.8104 69.7274 59.7863 69.583L51.5533 41.9953L45.8119 22.6767C45.5953 21.9546 45.6675 21.2324 45.9564 20.6546C46.0286 20.5102 46.1249 20.3778 46.2452 20.2574C46.2452 20.2333 46.2452 20.2213 46.2452 20.2213C46.3897 20.0528 46.5582 19.8963 46.7508 19.7519C46.7748 19.7519 46.7989 19.7399 46.823 19.7158C46.498 19.8241 45.7397 20.5102 45.4508 21.1602C45.4027 21.2083 45.3666 21.2685 45.3425 21.3407C45.3425 21.3407 45.3425 21.3528 45.3425 21.3768C45.1981 21.6657 45.0897 21.9907 44.9814 22.3157C44.9092 22.5083 44.837 22.7129 44.7647 22.9296C44.6684 23.1703 44.5842 23.411 44.512 23.6517C44.4157 23.9165 44.3194 24.1934 44.2231 24.4823C44.1027 24.7952 43.9944 25.1082 43.8981 25.4211L43.5009 26.4683C43.3806 26.8535 43.2481 27.2386 43.1037 27.6238L42.6704 28.8515C42.5259 29.2848 42.3815 29.7181 42.2371 30.1515C42.0686 30.6088 41.9 31.0662 41.7315 31.5236C41.563 32.0051 41.3945 32.4865 41.226 32.968C41.0575 33.4735 40.889 33.9791 40.7205 34.4846C40.5279 34.9901 40.3473 35.5077 40.1788 36.0373C39.9862 36.5669 39.7937 37.0845 39.6011 37.59C39.4085 38.1437 39.2159 38.6853 39.0233 39.2149C38.8307 39.7686 38.6381 40.3223 38.4456 40.876L37.2901 44.1981C37.0975 44.7517 36.9049 45.3054 36.7123 45.8591C36.5197 46.4128 36.3271 46.9785 36.1346 47.5562C35.942 48.0858 35.7494 48.6275 35.5568 49.1812C35.3642 49.7348 35.1717 50.2765 34.9791 50.8061C34.7865 51.3598 34.5939 51.9014 34.4013 52.431C34.2328 52.9366 34.0522 53.4541 33.8596 53.9837C33.6911 54.4893 33.5106 54.9948 33.318 55.5003C33.1495 55.9818 32.981 56.4753 32.8125 56.9808C32.644 57.4382 32.4755 57.9076 32.3069 58.3891C32.1625 58.8224 32.006 59.2678 31.8375 59.7252C31.6931 60.1344 31.5486 60.5557 31.4042 60.989C31.2598 61.3741 31.1274 61.7593 31.007 62.1445L30.6098 63.2278C30.4894 63.5648 30.3691 63.9018 30.2487 64.2388C30.1524 64.5277 30.0561 64.8166 29.9598 65.1055C29.8635 65.3703 29.7673 65.623 29.671 65.8638C29.5987 66.0804 29.5265 66.2971 29.4543 66.5137C29.4061 66.6822 29.346 66.8508 29.2737 67.0193C29.2256 67.1637 29.1775 67.2961 29.1293 67.4165L29.0571 67.6331C29.0571 67.6572 29.045 67.6933 29.021 67.7415C28.1182 70.0525 26.2767 71.1719 24.4351 71.0635C24.411 71.0876 24.3749 71.0996 24.3268 71.0996H60.2196C60.1956 71.0033 60.1715 70.907 60.1474 70.8107Z" fill="#4A4A4A"/>
<path d="M88.1323 27.7319C87.8193 26.6246 87.5184 25.5174 87.2295 24.41C87.0129 23.5073 86.724 22.6045 86.2185 21.8101C85.7491 21.0157 85.063 20.3296 84.2686 19.8602C84.0278 19.7398 83.7871 19.6315 83.5464 19.5352C83.1492 19.3908 82.4992 19.3186 82.102 19.3186H48.3396C47.7257 19.3186 47.2202 19.463 46.823 19.7158C46.7989 19.7399 46.7748 19.7519 46.7508 19.7519C46.5582 19.8963 46.3897 20.0528 46.2452 20.2213C46.2452 20.2213 46.2452 20.2333 46.2452 20.2574C46.1249 20.3778 46.0286 20.5102 45.9564 20.6546C45.6675 21.2324 45.5953 21.9546 45.8119 22.6767L51.5533 41.9953L59.7863 69.583L60.1835 70.9913L61.7362 76.4077C61.8445 76.6966 62.675 78.9354 64.95 79.6576C66.0694 80.0187 67.0443 79.8381 67.5498 79.6937C67.6221 79.6937 67.7183 79.6695 67.8387 79.6213C67.8628 79.6213 67.8869 79.6213 67.911 79.6213C67.911 79.5973 67.923 79.5852 67.9471 79.5852C68.0554 79.5491 68.3804 79.4408 68.7776 79.188C68.922 79.0917 69.0544 78.9954 69.1748 78.8992C69.4275 78.7186 69.6081 78.5382 69.7525 78.3937C69.8488 78.2974 69.9331 78.201 70.0053 78.1047C70.1256 77.9844 70.234 77.852 70.3303 77.7075C70.9803 76.8048 71.3414 75.9021 71.4136 75.7215C71.8108 74.6743 72.1719 73.6271 72.4608 72.7244C72.6293 72.243 72.7737 71.7977 72.894 71.3885L73.9773 68.3192C74.4106 67.0674 74.856 65.8036 75.3134 64.5277C75.8189 63.0592 76.3245 61.5908 76.83 60.1223C77.3837 58.5094 77.9494 56.9086 78.5271 55.3198C79.1049 53.6587 79.6827 52.0097 80.2604 50.3728L81.9576 45.4257L83.6186 40.7315C84.1001 39.3112 84.5935 37.8909 85.0991 36.4706C85.5324 35.2429 85.9537 34.0272 86.3629 32.8235C86.6999 31.8847 87.0249 30.9579 87.3379 30.0431C87.5064 29.5616 87.6749 29.0921 87.8434 28.6347C87.8675 28.5143 87.9036 28.394 87.9517 28.2736C88.0239 28.1051 88.0841 27.9245 88.1323 27.7319Z" fill="white"/>
</svg>
